<svg xmlns="http://www.w3.org/2000/svg" width="24" height="24" viewBox="0 0 24 24"><defs><style>.a{fill:none;}.b{fill:#182832;}</style></defs><path class="a" d="M0,0H24V24H0Z"/><path class="b" d="M8.551,14.191h.783v-3.81h1.524v3.81h.783a4.376,4.376,0,0,1,1.326-2.5c.086-.093.634-.661.7-.741a4.572,4.572,0,1,0-7.139,0c.066.082.615.65.7.742a4.377,4.377,0,0,1,1.327,2.5Zm.021,1.524v.762h3.048v-.762Zm-3.235-3.81a6.1,6.1,0,1,1,9.517,0c-.472.588-1.71,1.522-1.71,2.665v1.9A1.524,1.524,0,0,1,11.619,18H8.572a1.524,1.524,0,0,1-1.524-1.524v-1.9C7.048,13.429,5.81,12.5,5.336,11.905Z" transform="translate(2 2)"/></svg>