<svg xmlns="http://www.w3.org/2000/svg" viewBox="0 0 761 319"><defs><style>.cls-1{fill:#18191b;}.cls-2{fill:#4dc5f2;}.cls-3{fill:#17181a;}</style></defs><g id="Layer_2" data-name="Layer 2"><g id="Layer_1-2" data-name="Layer 1"><path class="cls-1" d="M159.37,0V21.45c76.06,0,137.94,61.93,137.94,138.05S235.43,297.55,159.37,297.55V319c87.87,0,159.36-71.55,159.36-159.5S247.24,0,159.37,0"/><path class="cls-2" d="M21.43,159.5c0-76.12,61.88-138.06,137.94-138.06V0C71.49,0,0,71.55,0,159.5S71.49,319,159.37,319V297.55c-76.06,0-137.94-61.93-137.94-138"/><path class="cls-1" d="M195.93,148.17a38.19,38.19,0,1,0-3,29.08,38,38,0,0,0,3-29.08m-19.17,20.34A19.77,19.77,0,0,1,142,149.72a19.77,19.77,0,0,1,34.78,18.79"/><rect class="cls-1" x="92.3" y="179.1" width="40.51" height="21.45" transform="translate(-85.7 92.89) rotate(-33.28)"/><path class="cls-2" d="M105.94,194.36a21.78,21.78,0,1,0,3,17,21.69,21.69,0,0,0-3-17"/><rect class="cls-1" x="148.83" y="83.86" width="21.43" height="40.53"/><path class="cls-2" d="M159.38,96.1a21.79,21.79,0,1,0-15.84-6.82,21.69,21.69,0,0,0,15.84,6.82"/><rect class="cls-1" x="195.45" y="169.57" width="21.45" height="40.51" transform="translate(-65.65 258.03) rotate(-56.72)"/><path class="cls-2" d="M212.79,194.36a21.78,21.78,0,1,1-3,17,21.74,21.74,0,0,1,3-17"/><path class="cls-3" d="M525.84,61.88H547.3v57.27c8-9.54,19.72-15.62,34.24-15.62a56,56,0,1,1-55.7,56Zm21,97.62c0,19.74,15,35.36,34.68,35.36,19.94,0,34.68-15.62,34.68-35.36s-15-35.36-34.68-35.36c-19.5,0-34.68,15.62-34.68,35.36"/><path class="cls-3" d="M705.08,103.53a56,56,0,0,1,0,111.94c-14.52,0-26.23-6.08-34.24-15.62v57.26H649.38V159.5a55.76,55.76,0,0,1,55.7-56m34.68,56c0-19.74-14.74-35.36-34.68-35.36-19.72,0-34.68,15.62-34.68,35.36s15.17,35.36,34.68,35.36c19.72,0,34.68-15.62,34.68-35.36"/><path class="cls-2" d="M513.93,123.62v-19.9A55.28,55.28,0,0,0,462.1,140V177.9a55.26,55.26,0,0,0,51.83,36.29V194.3a35.34,35.34,0,0,1,0-70.68"/><path class="cls-2" d="M423.5,194.3v19.9a55.24,55.24,0,0,0,0-110.48v19.9a35.34,35.34,0,0,1,0,70.68"/></g></g></svg>